              <svg id="sw-js-blob-svg" viewBox="0 0 100 100" xmlns="http://www.w3.org/2000/svg" version="1.1">
                    <defs> 
                        <linearGradient id="sw-gradient" x1="0" x2="1" y1="1" y2="0">
                            <stop id="stop1" stop-color="rgba(148, 12, 255, 1)" offset="0%"></stop>
                            <stop id="stop2" stop-color="rgba(66, 190, 255, 1)" offset="100%"></stop>
                        </linearGradient>
                    </defs>
                <path fill="none" d="M13.2,-27.1C16.3,-21.1,17.5,-15.9,17.2,-11.5C17,-7.2,15.3,-3.6,17.7,1.4C20.1,6.3,26.5,12.7,26.9,17.3C27.2,21.8,21.6,24.7,16.1,25.9C10.6,27,5.3,26.6,-1.5,29.1C-8.2,31.7,-16.5,37.2,-21.9,36C-27.4,34.8,-30,26.8,-29.7,19.7C-29.3,12.6,-26,6.3,-25.6,0.2C-25.1,-5.8,-27.7,-11.6,-25.5,-14.3C-23.3,-17,-16.3,-16.6,-11.2,-21.4C-6.2,-26.3,-3.1,-36.4,1,-38.1C5.1,-39.8,10.1,-33.1,13.2,-27.1Z" width="100%" height="100%" transform="translate(50 50)" style="transition: 0.3s;" stroke-width="1" stroke="url(#sw-gradient)"></path>
              </svg>